<?xml version="1.0" encoding="UTF-8" standalone="no"?>
<!DOCTYPE svg PUBLIC "-//W3C//DTD SVG 1.1//EN" "http://www.w3.org/Graphics/SVG/1.1/DTD/svg11.dtd">
<!-- Generated by graphviz version 2.40.1 (20161225.0304)
 -->
<!-- Title: literals Pages: 1 -->
<svg width="1582pt" height="425pt" viewBox="0.00 0.00 1581.72 424.80" xmlns="http://www.w3.org/2000/svg" xmlns:xlink="http://www.w3.org/1999/xlink">
<g id="graph0" class="graph" transform="scale(1 1) rotate(0) translate(4 420.8)">
<title>literals</title>
<polygon fill="#ffffff" stroke="transparent" points="-4,4 -4,-420.8 1577.7163,-420.8 1577.7163,4 -4,4"/>
<!-- abstract_literal -->
<g id="node1" class="node">
<title>abstract_literal</title>
<ellipse fill="none" stroke="#000000" cx="141.956" cy="-91" rx="68.3285" ry="18"/>
<text text-anchor="middle" x="141.956" y="-86.8" font-family="Times,serif" font-size="14.00" fill="#000000">abstract_literal</text>
</g>
<!-- decimal_literal -->
<g id="node2" class="node">
<title>decimal_literal</title>
<ellipse fill="none" stroke="#000000" cx="68.956" cy="-18" rx="68.912" ry="18"/>
<text text-anchor="middle" x="68.956" y="-13.8" font-family="Times,serif" font-size="14.00" fill="#000000">decimal_literal</text>
</g>
<!-- abstract_literal&#45;&gt;decimal_literal -->
<g id="edge1" class="edge">
<title>abstract_literal-&gt;decimal_literal</title>
<path fill="none" stroke="#000000" d="M124.2847,-73.3287C115.1386,-64.1827 103.8205,-52.8646 93.8085,-42.8526"/>
<polygon fill="#000000" stroke="#000000" points="96.0105,-40.1047 86.4645,-35.5085 91.0607,-45.0545 96.0105,-40.1047"/>
</g>
<!-- based_literal -->
<g id="node3" class="node">
<title>based_literal</title>
<ellipse fill="none" stroke="#000000" cx="215.956" cy="-18" rx="60.2479" ry="18"/>
<text text-anchor="middle" x="215.956" y="-13.8" font-family="Times,serif" font-size="14.00" fill="#000000">based_literal</text>
</g>
<!-- abstract_literal&#45;&gt;based_literal -->
<g id="edge2" class="edge">
<title>abstract_literal-&gt;based_literal</title>
<path fill="none" stroke="#000000" d="M159.8693,-73.3287C169.3004,-64.0251 181.0098,-52.4739 191.2863,-42.3363"/>
<polygon fill="#000000" stroke="#000000" points="193.8019,-44.7711 198.4629,-35.2566 188.8859,-39.7878 193.8019,-44.7711"/>
</g>
<!-- enumeration_literal -->
<g id="node4" class="node">
<title>enumeration_literal</title>
<ellipse fill="none" stroke="#000000" cx="867.956" cy="-252.8" rx="86.8126" ry="18"/>
<text text-anchor="middle" x="867.956" y="-248.6" font-family="Times,serif" font-size="14.00" fill="#000000">enumeration_literal</text>
</g>
<!-- identifier -->
<g id="node5" class="node">
<title>identifier</title>
<ellipse fill="none" stroke="#000000" cx="807.956" cy="-164" rx="46.3624" ry="18"/>
<text text-anchor="middle" x="807.956" y="-159.8" font-family="Times,serif" font-size="14.00" fill="#000000">identifier</text>
</g>
<!-- enumeration_literal&#45;&gt;identifier -->
<g id="edge3" class="edge">
<title>enumeration_literal-&gt;identifier</title>
<path fill="none" stroke="#000000" d="M855.8141,-234.83C847.1368,-221.9876 835.3256,-204.507 825.6082,-190.1253"/>
<polygon fill="#000000" stroke="#000000" points="828.3737,-187.9666 819.875,-181.6402 822.5736,-191.8857 828.3737,-187.9666"/>
</g>
<!-- character_literal -->
<g id="node6" class="node">
<title>character_literal</title>
<ellipse fill="none" stroke="#000000" cx="1239.956" cy="-164" rx="73.5271" ry="18"/>
<text text-anchor="middle" x="1239.956" y="-159.8" font-family="Times,serif" font-size="14.00" fill="#000000">character_literal</text>
</g>
<!-- enumeration_literal&#45;&gt;character_literal -->
<g id="edge4" class="edge">
<title>enumeration_literal-&gt;character_literal</title>
<path fill="none" stroke="#000000" d="M894.6886,-235.5102C914.4225,-223.5893 942.3608,-208.4279 968.956,-200 1003.5994,-189.0217 1093.7704,-178.2955 1160.6392,-171.4483"/>
<polygon fill="#000000" stroke="#000000" points="1161.146,-174.915 1170.7424,-170.425 1160.4406,-167.9506 1161.146,-174.915"/>
</g>
<!-- literal -->
<g id="node7" class="node">
<title>literal</title>
<ellipse fill="none" stroke="#000000" cx="507.956" cy="-325.8" rx="33.6189" ry="18"/>
<text text-anchor="middle" x="507.956" y="-321.6" font-family="Times,serif" font-size="14.00" fill="#000000">literal</text>
</g>
<!-- literal&#45;&gt;enumeration_literal -->
<g id="edge6" class="edge">
<title>literal-&gt;enumeration_literal</title>
<path fill="none" stroke="#000000" d="M539.588,-319.3857C596.4844,-307.8484 717.4259,-283.3242 795.5838,-267.4755"/>
<polygon fill="#000000" stroke="#000000" points="796.7379,-270.8128 805.8428,-265.3952 795.3467,-263.9524 796.7379,-270.8128"/>
</g>
<!-- numeric_literal -->
<g id="node8" class="node">
<title>numeric_literal</title>
<ellipse fill="none" stroke="#000000" cx="167.956" cy="-252.8" rx="70.0577" ry="18"/>
<text text-anchor="middle" x="167.956" y="-248.6" font-family="Times,serif" font-size="14.00" fill="#000000">numeric_literal</text>
</g>
<!-- literal&#45;&gt;numeric_literal -->
<g id="edge5" class="edge">
<title>literal-&gt;numeric_literal</title>
<path fill="none" stroke="#000000" d="M474.2094,-324.0131C424.6533,-320.7297 329.6567,-311.9168 251.956,-289.8 237.2616,-285.6174 221.7919,-279.3781 208.1886,-273.2092"/>
<polygon fill="#000000" stroke="#000000" points="209.6443,-270.0262 199.1016,-268.9758 206.6882,-276.3714 209.6443,-270.0262"/>
</g>
<!-- string_literal -->
<g id="node9" class="node">
<title>string_literal</title>
<ellipse fill="none" stroke="#000000" cx="534.956" cy="-164" rx="60.2653" ry="18"/>
<text text-anchor="middle" x="534.956" y="-159.8" font-family="Times,serif" font-size="14.00" fill="#000000">string_literal</text>
</g>
<!-- literal&#45;&gt;string_literal -->
<g id="edge7" class="edge">
<title>literal-&gt;string_literal</title>
<path fill="none" stroke="#000000" d="M474.4799,-324.2871C400.6475,-319.7052 234.2649,-301.8403 284.956,-234.8 307.3083,-205.2384 403.9613,-184.4573 470.3257,-173.3638"/>
<polygon fill="#000000" stroke="#000000" points="470.9893,-176.8018 480.2925,-171.732 469.8583,-169.8938 470.9893,-176.8018"/>
</g>
<!-- bit_string_literal -->
<g id="node10" class="node">
<title>bit_string_literal</title>
<ellipse fill="none" stroke="#000000" cx="368.956" cy="-252.8" rx="75.3137" ry="18"/>
<text text-anchor="middle" x="368.956" y="-248.6" font-family="Times,serif" font-size="14.00" fill="#000000">bit_string_literal</text>
</g>
<!-- literal&#45;&gt;bit_string_literal -->
<g id="edge8" class="edge">
<title>literal-&gt;bit_string_literal</title>
<path fill="none" stroke="#000000" d="M483.744,-313.0844C463.1907,-302.2902 433.2778,-286.5805 409.1408,-273.9043"/>
<polygon fill="#000000" stroke="#000000" points="410.6851,-270.762 400.2044,-269.2111 407.4304,-276.9594 410.6851,-270.762"/>
</g>
<!-- NULL -->
<g id="node11" class="node">
<title>NULL</title>
<ellipse fill="none" stroke="#000000" cx="687.956" cy="-252.8" rx="36.5575" ry="18"/>
<text text-anchor="middle" x="687.956" y="-248.6" font-family="Times,serif" font-size="14.00" fill="#000000">NULL</text>
</g>
<!-- literal&#45;&gt;NULL -->
<g id="edge9" class="edge">
<title>literal-&gt;NULL</title>
<path fill="none" stroke="#000000" d="M534.9038,-314.8712C565.5627,-302.4373 615.8394,-282.0473 650.3486,-268.0519"/>
<polygon fill="#000000" stroke="#000000" points="651.683,-271.2877 659.6345,-264.2859 649.0522,-264.8008 651.683,-271.2877"/>
</g>
<!-- numeric_literal&#45;&gt;abstract_literal -->
<g id="edge10" class="edge">
<title>numeric_literal-&gt;abstract_literal</title>
<path fill="none" stroke="#000000" d="M165.024,-234.554C160.5181,-206.5137 151.8544,-152.5988 146.5219,-119.4143"/>
<polygon fill="#000000" stroke="#000000" points="149.9595,-118.7456 144.9171,-109.4276 143.0481,-119.8562 149.9595,-118.7456"/>
</g>
<!-- physical_literal -->
<g id="node12" class="node">
<title>physical_literal</title>
<ellipse fill="none" stroke="#000000" cx="240.956" cy="-164" rx="70.6393" ry="18"/>
<text text-anchor="middle" x="240.956" y="-159.8" font-family="Times,serif" font-size="14.00" fill="#000000">physical_literal</text>
</g>
<!-- numeric_literal&#45;&gt;physical_literal -->
<g id="edge11" class="edge">
<title>numeric_literal-&gt;physical_literal</title>
<path fill="none" stroke="#000000" d="M182.7286,-234.83C193.3855,-221.8665 207.9278,-204.1768 219.813,-189.7191"/>
<polygon fill="#000000" stroke="#000000" points="222.8077,-191.5877 226.4544,-181.6402 217.4003,-187.1424 222.8077,-191.5877"/>
</g>
<!-- physical_literal&#45;&gt;abstract_literal -->
<g id="edge24" class="edge">
<title>physical_literal-&gt;abstract_literal</title>
<path fill="none" stroke="#000000" d="M217.7449,-146.8847C204.4635,-137.0914 187.625,-124.6751 173.1947,-114.0346"/>
<polygon fill="#000000" stroke="#000000" points="175.1474,-111.1258 165.0216,-108.008 170.993,-116.7598 175.1474,-111.1258"/>
</g>
<!-- unit_name -->
<g id="node21" class="node">
<title>unit_name</title>
<ellipse fill="none" stroke="#000000" cx="279.956" cy="-91" rx="51.6073" ry="18"/>
<text text-anchor="middle" x="279.956" y="-86.8" font-family="Times,serif" font-size="14.00" fill="#000000">unit_name</text>
</g>
<!-- physical_literal&#45;&gt;unit_name -->
<g id="edge25" class="edge">
<title>physical_literal-&gt;unit_name</title>
<path fill="none" stroke="#000000" d="M250.5964,-145.9551C255.1303,-137.4685 260.6292,-127.1757 265.6367,-117.8028"/>
<polygon fill="#000000" stroke="#000000" points="268.8013,-119.3068 270.4264,-108.8374 262.6271,-116.0083 268.8013,-119.3068"/>
</g>
<!-- operator_symbol -->
<g id="node13" class="node">
<title>operator_symbol</title>
<ellipse fill="none" stroke="#000000" cx="1086.956" cy="-252.8" rx="76.4478" ry="18"/>
<text text-anchor="middle" x="1086.956" y="-248.6" font-family="Times,serif" font-size="14.00" fill="#000000">operator_symbol</text>
</g>
<!-- operator_symbol&#45;&gt;string_literal -->
<g id="edge12" class="edge">
<title>operator_symbol-&gt;string_literal</title>
<path fill="none" stroke="#000000" stroke-dasharray="1,5" d="M1023.6345,-242.6135C917.3282,-225.5121 704.2122,-191.2282 598.055,-174.1507"/>
<polygon fill="#000000" stroke="#000000" points="598.5518,-170.6857 588.1228,-172.5529 597.44,-177.5969 598.5518,-170.6857"/>
<text text-anchor="middle" x="873.7835" y="-204.2" font-family="Times,serif" font-size="14.00" fill="#000000">alias</text>
</g>
<!-- simple_name -->
<g id="node14" class="node">
<title>simple_name</title>
<ellipse fill="none" stroke="#000000" cx="1417.956" cy="-252.8" rx="62.5585" ry="18"/>
<text text-anchor="middle" x="1417.956" y="-248.6" font-family="Times,serif" font-size="14.00" fill="#000000">simple_name</text>
</g>
<!-- simple_name&#45;&gt;identifier -->
<g id="edge13" class="edge">
<title>simple_name-&gt;identifier</title>
<path fill="none" stroke="#000000" stroke-dasharray="1,5" d="M1363.7215,-243.6873C1345.9627,-240.767 1326.1292,-237.5732 1307.956,-234.8 1146.0591,-210.0945 954.2073,-183.7464 862.318,-171.3073"/>
<polygon fill="#000000" stroke="#000000" points="862.5255,-167.8036 852.1467,-169.932 861.5875,-174.7405 862.5255,-167.8036"/>
<text text-anchor="middle" x="1196.7835" y="-204.2" font-family="Times,serif" font-size="14.00" fill="#000000">alias</text>
</g>
<!-- alias_designator -->
<g id="node15" class="node">
<title>alias_designator</title>
<polygon fill="#ffb90f" stroke="#ffb90f" points="792.4266,-343.8 685.4854,-343.8 685.4854,-307.8 792.4266,-307.8 792.4266,-343.8"/>
<text text-anchor="middle" x="738.956" y="-321.6" font-family="Times,serif" font-size="14.00" fill="#000000">alias_designator</text>
</g>
<!-- alias_designator&#45;&gt;identifier -->
<g id="edge14" class="edge">
<title>alias_designator-&gt;identifier</title>
<path fill="none" stroke="#000000" d="M744.7696,-307.7612C750.9149,-289.2162 761.1921,-259.6234 771.956,-234.8 778.4009,-219.9368 786.5124,-203.8045 793.4034,-190.6983"/>
<polygon fill="#000000" stroke="#000000" points="796.5565,-192.2233 798.1641,-181.7512 790.3768,-188.9351 796.5565,-192.2233"/>
</g>
<!-- alias_designator&#45;&gt;character_literal -->
<g id="edge15" class="edge">
<title>alias_designator-&gt;character_literal</title>
<path fill="none" stroke="#000000" d="M792.6707,-309.9939C795.4686,-309.2369 798.243,-308.5011 800.956,-307.8 872.8807,-289.2136 898.4376,-305.8136 963.956,-270.8 984.4742,-259.8348 981.8102,-246.4355 1001.956,-234.8 1053.818,-204.8463 1119.484,-186.5522 1168.6974,-176.0845"/>
<polygon fill="#000000" stroke="#000000" points="1169.5409,-179.4842 1178.6247,-174.0311 1168.1231,-172.6292 1169.5409,-179.4842"/>
</g>
<!-- alias_designator&#45;&gt;operator_symbol -->
<g id="edge16" class="edge">
<title>alias_designator-&gt;operator_symbol</title>
<path fill="none" stroke="#000000" d="M792.5724,-309.5544C795.396,-308.9121 798.2028,-308.3211 800.956,-307.8 886.9075,-291.5311 912.0025,-310.6628 996.956,-289.8 1012.9714,-285.8669 1029.8592,-279.5535 1044.6253,-273.2468"/>
<polygon fill="#000000" stroke="#000000" points="1046.2464,-276.3575 1053.9919,-269.1285 1043.4289,-269.9495 1046.2464,-276.3575"/>
</g>
<!-- entity_tag -->
<g id="node16" class="node">
<title>entity_tag</title>
<polygon fill="#ffb90f" stroke="#ffb90f" points="1362.9476,-343.8 1290.9644,-343.8 1290.9644,-307.8 1362.9476,-307.8 1362.9476,-343.8"/>
<text text-anchor="middle" x="1326.956" y="-321.6" font-family="Times,serif" font-size="14.00" fill="#000000">entity_tag</text>
</g>
<!-- entity_tag&#45;&gt;character_literal -->
<g id="edge18" class="edge">
<title>entity_tag-&gt;character_literal</title>
<path fill="none" stroke="#000000" d="M1326.116,-307.7087C1324.5787,-288.5971 1320.2329,-258.0667 1307.956,-234.8 1298.6479,-217.1598 1283.639,-200.8517 1270.0869,-188.3444"/>
<polygon fill="#000000" stroke="#000000" points="1272.1261,-185.4738 1262.33,-181.4381 1267.4713,-190.7019 1272.1261,-185.4738"/>
</g>
<!-- entity_tag&#45;&gt;operator_symbol -->
<g id="edge19" class="edge">
<title>entity_tag-&gt;operator_symbol</title>
<path fill="none" stroke="#000000" d="M1290.7657,-314.7921C1251.7263,-302.9177 1189.0497,-283.8535 1143.4987,-269.9984"/>
<polygon fill="#000000" stroke="#000000" points="1144.3502,-266.5991 1133.7644,-267.0376 1142.3131,-273.2962 1144.3502,-266.5991"/>
</g>
<!-- entity_tag&#45;&gt;simple_name -->
<g id="edge17" class="edge">
<title>entity_tag-&gt;simple_name</title>
<path fill="none" stroke="#000000" d="M1349.4504,-307.7551C1361.2803,-298.2651 1375.9258,-286.5165 1388.6351,-276.3211"/>
<polygon fill="#000000" stroke="#000000" points="1391.048,-278.8726 1396.6582,-269.885 1386.6678,-273.4123 1391.048,-278.8726"/>
</g>
<!-- enumeration_type_definition -->
<g id="node17" class="node">
<title>enumeration_type_definition</title>
<polygon fill="#ffb90f" stroke="#ffb90f" points="1059.9756,-343.8 881.9363,-343.8 881.9363,-307.8 1059.9756,-307.8 1059.9756,-343.8"/>
<text text-anchor="middle" x="970.956" y="-321.6" font-family="Times,serif" font-size="14.00" fill="#000000">enumeration_type_definition</text>
</g>
<!-- enumeration_type_definition&#45;&gt;enumeration_literal -->
<g id="edge20" class="edge">
<title>enumeration_type_definition-&gt;enumeration_literal</title>
<path fill="none" stroke="#000000" d="M945.4953,-307.7551C931.9499,-298.1549 915.1432,-286.2434 900.6432,-275.9667"/>
<polygon fill="#000000" stroke="#000000" points="902.597,-273.0616 892.4145,-270.1347 898.5494,-278.7726 902.597,-273.0616"/>
</g>
<!-- group_constituent -->
<g id="node18" class="node">
<title>group_constituent</title>
<polygon fill="#ffb90f" stroke="#ffb90f" points="1298.5528,-270.8 1181.3591,-270.8 1181.3591,-234.8 1298.5528,-234.8 1298.5528,-270.8"/>
<text text-anchor="middle" x="1239.956" y="-248.6" font-family="Times,serif" font-size="14.00" fill="#000000">group_constituent</text>
</g>
<!-- group_constituent&#45;&gt;character_literal -->
<g id="edge21" class="edge">
<title>group_constituent-&gt;character_literal</title>
<path fill="none" stroke="#000000" d="M1239.956,-234.4006C1239.956,-222.2949 1239.956,-206.2076 1239.956,-192.4674"/>
<polygon fill="#000000" stroke="#000000" points="1243.4561,-192.072 1239.956,-182.072 1236.4561,-192.0721 1243.4561,-192.072"/>
</g>
<!-- name -->
<g id="node19" class="node">
<title>name</title>
<ellipse fill="none" stroke="#000000" stroke-width="0" cx="836.956" cy="-325.8" rx="27" ry="18"/>
<text text-anchor="middle" x="836.956" y="-321.6" font-family="Times,serif" font-size="14.00" fill="#000000">...</text>
</g>
<!-- primary -->
<g id="node20" class="node">
<title>primary</title>
<polygon fill="#ffb90f" stroke="#ffb90f" points="690.2738,-416.8 629.6381,-416.8 629.6381,-380.8 690.2738,-380.8 690.2738,-416.8"/>
<text text-anchor="middle" x="659.956" y="-394.6" font-family="Times,serif" font-size="14.00" fill="#000000">primary</text>
</g>
<!-- primary&#45;&gt;literal -->
<g id="edge23" class="edge">
<title>primary-&gt;literal</title>
<path fill="none" stroke="#000000" d="M629.5618,-384.2028C604.4077,-372.1222 568.6766,-354.9619 542.4535,-342.3679"/>
<polygon fill="#000000" stroke="#000000" points="543.7892,-339.1267 533.2597,-337.9524 540.7587,-345.4367 543.7892,-339.1267"/>
</g>
<!-- primary&#45;&gt;name -->
<g id="edge22" class="edge">
<title>primary-&gt;name</title>
<path fill="none" stroke="#000000" d="M690.266,-387.8941C719.0451,-377.3242 763.3715,-360.4843 800.956,-343.8 802.7283,-343.0132 804.5394,-342.1855 806.36,-341.335"/>
<polygon fill="#000000" stroke="#000000" points="807.9175,-344.4697 815.4074,-336.9762 804.8792,-338.1635 807.9175,-344.4697"/>
</g>
<!-- secondary_unit_declaration -->
<g id="node22" class="node">
<title>secondary_unit_declaration</title>
<polygon fill="#ffb90f" stroke="#ffb90f" points="633.1772,-270.8 462.7347,-270.8 462.7347,-234.8 633.1772,-234.8 633.1772,-270.8"/>
<text text-anchor="middle" x="547.956" y="-248.6" font-family="Times,serif" font-size="14.00" fill="#000000">secondary_unit_declaration</text>
</g>
<!-- secondary_unit_declaration&#45;&gt;identifier -->
<g id="edge26" class="edge">
<title>secondary_unit_declaration-&gt;identifier</title>
<path fill="none" stroke="#000000" d="M580.5448,-234.7034C601.7965,-223.4874 630.4171,-209.4645 656.956,-200 688.9726,-188.582 726.0951,-179.6762 755.5203,-173.5789"/>
<polygon fill="#000000" stroke="#000000" points="756.4803,-176.9556 765.5863,-171.5398 755.0905,-170.095 756.4803,-176.9556"/>
</g>
<!-- secondary_unit_declaration&#45;&gt;physical_literal -->
<g id="edge27" class="edge">
<title>secondary_unit_declaration-&gt;physical_literal</title>
<path fill="none" stroke="#000000" d="M485.4599,-234.723C430.3351,-218.7781 350.7036,-195.7446 297.4556,-180.3426"/>
<polygon fill="#000000" stroke="#000000" points="298.4107,-176.9754 287.8319,-177.5589 296.4656,-183.6998 298.4107,-176.9754"/>
</g>
<!-- suffix -->
<g id="node23" class="node">
<title>suffix</title>
<polygon fill="#ffb90f" stroke="#ffb90f" points="1510.956,-343.8 1456.956,-343.8 1456.956,-307.8 1510.956,-307.8 1510.956,-343.8"/>
<text text-anchor="middle" x="1483.956" y="-321.6" font-family="Times,serif" font-size="14.00" fill="#000000">suffix</text>
</g>
<!-- suffix&#45;&gt;character_literal -->
<g id="edge29" class="edge">
<title>suffix-&gt;character_literal</title>
<path fill="none" stroke="#000000" d="M1511.3588,-315.8416C1530.7338,-307.1876 1555.2616,-292.5782 1566.956,-270.8 1574.5253,-256.7037 1577.0016,-247.2534 1566.956,-234.8 1536.6114,-197.1823 1407.5414,-178.5539 1320.9199,-170.1226"/>
<polygon fill="#000000" stroke="#000000" points="1321.1246,-166.6264 1310.8393,-169.1686 1320.465,-173.5953 1321.1246,-166.6264"/>
</g>
<!-- suffix&#45;&gt;operator_symbol -->
<g id="edge30" class="edge">
<title>suffix-&gt;operator_symbol</title>
<path fill="none" stroke="#000000" d="M1456.7716,-321.3294C1402.5155,-312.3358 1276.9772,-291.1704 1171.956,-270.8 1165.9309,-269.6313 1159.6738,-268.3795 1153.4108,-267.1004"/>
<polygon fill="#000000" stroke="#000000" points="1154.0973,-263.6684 1143.5964,-265.076 1152.6831,-270.5241 1154.0973,-263.6684"/>
</g>
<!-- suffix&#45;&gt;simple_name -->
<g id="edge28" class="edge">
<title>suffix-&gt;simple_name</title>
<path fill="none" stroke="#000000" d="M1467.6414,-307.7551C1459.5088,-298.7599 1449.5414,-287.7354 1440.6744,-277.928"/>
<polygon fill="#000000" stroke="#000000" points="1443.1579,-275.456 1433.8552,-270.3855 1437.9654,-280.1505 1443.1579,-275.456"/>
</g>
<!-- ALL -->
<g id="node24" class="node">
<title>ALL</title>
<ellipse fill="none" stroke="#000000" cx="1527.956" cy="-252.8" rx="29.6147" ry="18"/>
<text text-anchor="middle" x="1527.956" y="-248.6" font-family="Times,serif" font-size="14.00" fill="#000000">ALL</text>
</g>
<!-- suffix&#45;&gt;ALL -->
<g id="edge31" class="edge">
<title>suffix-&gt;ALL</title>
<path fill="none" stroke="#000000" d="M1494.8324,-307.7551C1500.078,-299.0522 1506.4685,-288.4497 1512.2319,-278.8876"/>
<polygon fill="#000000" stroke="#000000" points="1515.343,-280.506 1517.5077,-270.1347 1509.3478,-276.8925 1515.343,-280.506"/>
</g>
</g>
</svg>